# xmcd
#
# Track frame offsets:
#	150
#	20169
#	33402
#	52395
#	63572
#	79634
#	92984
#	110023
#	124282
#	144271
#	161548
#	176245
#	191735
#	204361
#	214745
#	230736
#
# Disc length: 3286 seconds
#
# Revision: 0
# Processed by: cddbd v1.5.1PL2 Copyright (c) Steve Scherf et al.
# Submitted via: dBpowerAMP V4.0
#
DISCID=f40cd410
DTITLE=Los Guaranies - Lo que ayer soñamos
DYEAR=2002
DGENRE=Folklores
TTITLE0=Una Historia de Amor Coma Antes
TTITLE1=Alguito Me Guardo
TTITLE2=Tres Besos
TTITLE3=Tu Aroma
TTITLE4=Amor Sagrado
TTITLE5=Escondidos
TTITLE6=Gota a Gota
TTITLE7=Quién Diría
TTITLE8=Vuelve a Mí
TTITLE9=Tutú, El Último Cantor
TTITLE10=Carbonilla
TTITLE11=Te Espero
TTITLE12=Yo Soy Tu Voz
TTITLE13=Río Coplero
TTITLE14=Tienes que Contunuar
TTITLE15=Cinco Sentidos
EXTD=
EXTT0=
EXTT1=
EXTT2=
EXTT3=
EXTT4=
EXTT5=
EXTT6=
EXTT7=
EXTT8=
EXTT9=
EXTT10=
EXTT11=
EXTT12=
EXTT13=
EXTT14=
EXTT15=
PLAYORDER=
